<svg xmlns="http://www.w3.org/2000/svg" viewBox="0 0 900 260">
<defs>
<linearGradient id="g" x1="0" y1="0" x2="1" y2="1"><stop stop-color="#9be4ff"/><stop offset="1" stop-color="#4ca9cf"/></linearGradient>
<style>
.w{font:700 54px ui-monospace,SFMono-Regular,Menlo,monospace;letter-spacing:7px;fill:#e7f0f5}
.s{font:11px ui-monospace,SFMono-Regular,Menlo,monospace;letter-spacing:3px;fill:#708592}
.t{fill:none;stroke:url(#g);stroke-width:5;stroke-linecap:round;stroke-linejoin:round}
</style></defs>
<rect width="900" height="260" rx="24" fill="#070b10"/>
<g transform="translate(48 45)">
<path d="M82 0C82 0 18 68 18 105C18 142 46 169 82 169C118 169 146 142 146 105C146 68 82 0 82 0Z" fill="#0c1a22" stroke="url(#g)" stroke-width="4"/>
<rect x="52" y="67" width="60" height="58" rx="8" fill="#0a1218" stroke="#66818d" stroke-width="2"/>
<path d="M52 82H32M52 101H24M112 82H132M112 101H140M66 67V47M82 67V38M98 67V50" class="t"/>
<circle cx="32" cy="82" r="4" fill="#9be4ff"/><circle cx="24" cy="101" r="4" fill="#9be4ff"/>
<circle cx="132" cy="82" r="4" fill="#9be4ff"/><circle cx="140" cy="101" r="4" fill="#9be4ff"/>
<path d="M68 84H96V108H68Z" fill="none" stroke="#9be4ff" stroke-width="3"/>
</g>
<text x="250" y="122" class="w">DEAD DROP</text>
<text x="255" y="153" class="s">PHYSICAL STORAGE / CONNECTED BY DESIGN</text>
<path d="M252 181H780" stroke="#35515f" stroke-width="2"/>
<circle cx="252" cy="181" r="3" fill="#9be4ff"/><circle cx="780" cy="181" r="3" fill="#9be4ff"/>
<text x="255" y="211" class="s">ESP32-S3 · microSD · USB · Wi-Fi</text>
</svg>